<svg width="194" height="194" viewBox="0 0 194 194" fill="none" xmlns="http://www.w3.org/2000/svg">
<path d="M94.2574 38.3083C95.9983 40.1516 97.0345 42.0262 97.0392 44.5816C97.0407 44.9597 97.0422 45.3378 97.0437 45.7274C97.0436 46.1446 97.0436 46.5618 97.0435 46.9917C97.0448 47.4335 97.046 47.8753 97.0473 48.3306C97.0506 49.5596 97.0519 50.7886 97.0528 52.0177C97.0541 53.3422 97.0573 54.6668 97.0603 55.9913C97.0669 59.1914 97.0703 62.3915 97.0733 65.5916C97.0748 67.0983 97.0766 68.605 97.0784 70.1116C97.0841 75.1196 97.089 80.1276 97.0914 85.1356C97.0921 86.4354 97.0927 87.7352 97.0934 89.035C97.0935 89.358 97.0937 89.6811 97.0939 90.0139C97.0967 95.2479 97.1052 100.482 97.1161 105.716C97.1273 111.088 97.1333 116.461 97.1344 121.833C97.1351 124.85 97.1381 127.867 97.1467 130.884C97.154 133.453 97.1567 136.023 97.1534 138.592C97.1519 139.903 97.1525 141.213 97.1591 142.524C97.1661 143.946 97.1627 145.367 97.1582 146.789C97.1619 147.202 97.1656 147.616 97.1694 148.041C97.1481 150.869 96.7361 152.656 94.8468 154.844C92.3172 157.012 90.2364 157.755 86.9358 157.547C83.678 156.74 81.6774 154.948 79.5456 152.448C78.9706 151.795 78.3952 151.142 77.8194 150.49C77.5147 150.142 77.2101 149.794 76.9055 149.446C62.0894 130.861 62.0894 130.861 41.8772 121.008C37.2075 120.711 32.4653 121.424 27.9464 122.564C25.9921 123.016 24.9952 122.866 23.2331 121.921C21.0869 120.49 19.7195 118.399 19.1914 115.858C19.1597 115.335 19.1446 114.811 19.1418 114.287C19.1394 113.972 19.137 113.658 19.1345 113.334C19.1336 112.992 19.1327 112.649 19.1318 112.296C19.1296 111.933 19.1273 111.571 19.1251 111.197C19.1184 109.996 19.1145 108.795 19.1111 107.593C19.1098 107.183 19.1084 106.772 19.107 106.349C19.0999 104.174 19.0951 102 19.092 99.8249C19.0886 97.5825 19.0767 95.3402 19.0633 93.0979C19.0545 91.3705 19.0517 89.6432 19.0504 87.9159C19.0488 87.0895 19.0449 86.2632 19.0386 85.4368C19.0304 84.2777 19.0308 83.1188 19.0331 81.9596C19.0288 81.6211 19.0245 81.2826 19.02 80.9338C19.0396 78.253 19.7113 76.0975 21.128 73.8205C22.462 72.5236 24.0577 71.361 25.9275 71.0629C26.7926 71.2272 26.7926 71.2272 27.7935 71.5068C35.0109 73.3259 43.3384 74.253 50.1777 70.7261C60.8257 63.9165 69.5886 52.924 77.8576 43.504C78.1499 43.173 78.4422 42.842 78.7434 42.501C79.2835 41.8876 79.8199 41.2709 80.3517 40.6503C84.2905 36.1763 89.0076 35.1128 94.2574 38.3083Z" fill="black"/>
<path d="M147.48 34.2469C160.734 42.4847 169.213 62.6708 172.657 77.0246C177.57 98.8318 174.357 122.679 162.51 141.812C162.228 142.256 161.945 142.698 161.661 143.14C161.517 143.363 161.373 143.587 161.225 143.817C158.232 148.412 154.796 152.638 151.115 156.696C150.929 156.905 150.744 157.114 150.553 157.329C148.909 159.102 146.832 160.484 144.367 160.734C141.437 160.814 139.016 160.255 136.779 158.275C135.207 156.542 134.359 154.226 134.211 151.897C134.483 148.351 136.13 146.253 138.523 143.801C150.616 131.38 156.75 114.152 157.03 96.9971C156.739 80.1822 150.939 64.0455 139.6 51.528C134.075 45.4199 134.075 45.4199 134.264 41.4804C134.654 39.0198 135.51 36.8423 137.398 35.1718C140.448 33.0212 144.114 32.5257 147.48 34.2469Z" fill="black"/>
<path d="M124.275 59.2746C133.306 67.0236 138.639 79.3205 140.105 90.9345C140.143 91.8312 140.168 92.7192 140.174 93.6158C140.176 93.8681 140.178 94.1203 140.18 94.3801C140.183 94.9128 140.185 95.4455 140.186 95.9783C140.189 96.7728 140.2 97.567 140.211 98.3614C140.244 103.089 139.596 107.606 138.19 112.132C138.104 112.411 138.018 112.69 137.93 112.977C135.452 120.754 130.383 131.283 122.991 135.519C120.734 136.53 118.293 136.643 115.912 136.019C113.493 135.061 111.835 133.217 110.55 131.015C109.735 128.936 109.776 126.512 110.39 124.388C111.317 122.327 112.761 120.843 114.299 119.216C120.826 111.823 122.708 102.571 122.255 92.9554C121.633 86.2562 118.544 79.8042 114.171 74.7678C111.558 71.708 109.878 69.5961 109.993 65.4332C110.335 62.6666 111.72 60.761 113.863 59.051C116.913 56.9223 121.288 57.1388 124.275 59.2746Z" fill="black"/>
</svg>
