<svg width="194" height="194" viewBox="0 0 194 194" fill="none" xmlns="http://www.w3.org/2000/svg">
<path d="M32.3214 25.0906C33.597 25.843 34.5429 26.8108 35.5812 27.8588C35.9267 28.2025 35.9267 28.2025 36.2792 28.5531C36.9189 29.1902 37.5567 29.8292 38.1937 30.4691C38.8869 31.1644 39.5825 31.8573 40.2778 32.5505C41.4964 33.766 42.7134 34.9831 43.9293 36.2012C45.7375 38.0125 47.548 39.8214 49.3591 41.6299C52.5931 44.8595 55.8248 48.0916 59.0555 51.3247C61.8825 54.1538 64.7102 56.9821 67.5388 59.8096C67.7263 59.9971 67.9137 60.1845 68.1069 60.3776C68.8679 61.1383 69.6289 61.8991 70.39 62.6598C77.5314 69.7987 84.6704 76.94 91.8083 84.0824C98.1531 90.4313 104.5 96.778 110.849 103.123C117.979 110.248 125.107 117.374 132.233 124.503C132.992 125.263 133.752 126.022 134.511 126.782C134.698 126.969 134.885 127.156 135.077 127.348C137.904 130.176 140.731 133.002 143.559 135.828C146.773 139.04 149.986 142.253 153.197 145.469C154.995 147.27 156.795 149.069 158.596 150.867C159.798 152.067 160.998 153.268 162.197 154.47C162.88 155.156 163.565 155.842 164.252 156.525C164.989 157.261 165.725 157.998 166.459 158.737C166.675 158.95 166.89 159.164 167.112 159.383C167.404 159.679 167.404 159.679 167.702 159.98C167.871 160.149 168.039 160.317 168.213 160.491C169.301 161.849 169.341 163.29 169.308 164.968C169.091 166.713 168.265 167.68 166.946 168.778C165.489 169.496 163.722 169.464 162.151 169.202C160.643 168.333 159.492 167.183 158.274 165.952C158.062 165.74 157.849 165.528 157.631 165.309C156.934 164.612 156.239 163.912 155.543 163.213C155.059 162.727 154.575 162.242 154.09 161.757C152.817 160.482 151.546 159.206 150.276 157.929C148.978 156.625 147.679 155.323 146.379 154.021C143.832 151.468 141.287 148.913 138.742 146.356C138.741 146.585 138.739 146.813 138.737 147.048C138.721 149.206 138.701 151.363 138.676 153.521C138.663 154.63 138.652 155.739 138.645 156.848C138.637 157.919 138.626 158.991 138.612 160.063C138.607 160.47 138.604 160.878 138.602 161.285C138.579 166.072 138.579 166.072 137.129 167.808C136.964 167.936 136.798 168.065 136.627 168.197C136.461 168.33 136.296 168.464 136.125 168.601C134.73 169.517 133.003 169.397 131.409 169.202C129.276 168.406 127.582 166.703 125.884 165.23C124.946 164.419 123.98 163.651 123.001 162.891C121.559 161.768 120.133 160.627 118.718 159.471C117.318 158.329 115.911 157.199 114.487 156.087C112.868 154.823 111.273 153.532 109.681 152.233C108.473 151.248 107.255 150.277 106.026 149.318C104.407 148.054 102.812 146.763 101.22 145.464C100.012 144.479 98.7936 143.508 97.5649 142.549C96.141 141.437 94.7339 140.307 93.3343 139.165C91.4451 137.623 89.5367 136.109 87.6152 134.609C87.1208 134.222 86.6276 133.834 86.1346 133.446C85.9676 133.314 85.8006 133.182 85.6285 133.047C85.1736 132.688 84.7188 132.33 84.2639 131.971C84.0988 131.848 83.9336 131.724 83.7635 131.596C83.1809 131.126 83.1809 131.126 82.4814 130.437C79.6936 127.904 77.2326 127.927 73.5895 128.009C73.0204 128.01 72.4513 128.011 71.8822 128.01C70.393 128.01 68.9044 128.027 67.4153 128.047C65.031 128.079 62.6465 128.087 60.2621 128.092C59.4347 128.097 58.6078 128.109 57.7805 128.123C54.39 128.158 51.4688 127.951 48.7294 125.718C46.2567 123.277 45.3103 120.682 45.2722 117.254C45.27 116.638 45.2719 116.023 45.2739 115.407C45.2723 114.961 45.2704 114.515 45.2681 114.07C45.263 112.864 45.2633 111.659 45.265 110.454C45.2658 109.446 45.2641 108.437 45.2624 107.429C45.2584 105.048 45.2589 102.668 45.2621 100.287C45.2653 97.8371 45.2614 95.3867 45.2538 92.9363C45.2475 90.8273 45.2457 88.7182 45.2473 86.6091C45.2483 85.3517 45.2476 84.0944 45.2428 82.8371C45.2384 81.6543 45.2395 80.4717 45.2448 79.2889C45.2458 78.8567 45.245 78.4244 45.242 77.9922C45.2203 74.5532 45.7091 71.6398 48.1906 69.0782C50.547 66.8527 52.8406 66.0013 56.0348 65.8171C56.2315 65.8049 56.4282 65.7927 56.6308 65.7802C57.1137 65.7504 57.5966 65.7219 58.0796 65.6937C57.8275 65.4427 57.8275 65.4427 57.5702 65.1867C53.4816 61.1168 49.3954 57.0446 45.3118 52.9697C43.3369 50.9992 41.3612 49.0295 39.3837 47.0617C37.6602 45.3466 35.9383 43.6301 34.2181 41.9118C33.3071 41.0019 32.3953 40.0928 31.4818 39.1854C30.6221 38.3314 29.7643 37.4754 28.9081 36.6179C28.5934 36.3035 28.2781 35.9898 27.9619 35.6769C27.5303 35.2495 27.1014 34.8196 26.6731 34.389C26.4324 34.149 26.1916 33.909 25.9436 33.6618C24.7335 32.2346 24.6577 30.8444 24.6934 29.0321C24.9115 27.2805 25.7377 26.3114 27.0731 25.2213C28.6531 24.4417 30.7008 24.4617 32.3214 25.0906Z" fill="black"/>
<path d="M135.402 24.9833C136.668 25.6276 137.523 26.6657 138.178 27.9007C138.455 28.7926 138.495 29.6017 138.495 30.5331C138.496 30.8399 138.496 31.1467 138.497 31.4628C138.496 31.7997 138.495 32.1366 138.494 32.4837C138.495 33.0207 138.495 33.0207 138.495 33.5686C138.496 34.5629 138.494 35.5572 138.493 36.5515C138.492 37.6235 138.492 38.6955 138.492 39.7675C138.493 41.625 138.492 43.4825 138.49 45.3401C138.488 48.0258 138.487 50.7114 138.487 53.3971C138.486 57.7543 138.484 62.1115 138.482 66.4688C138.479 70.7017 138.477 74.9347 138.476 79.1676C138.476 79.4285 138.476 79.6893 138.476 79.9581C138.475 81.2667 138.475 82.5754 138.475 83.884C138.472 94.7429 138.467 105.602 138.46 116.46C137.61 116.079 137.019 115.654 136.361 114.996C136.173 114.81 135.985 114.623 135.791 114.431C135.587 114.226 135.383 114.02 135.173 113.809C134.845 113.482 134.845 113.482 134.51 113.149C133.776 112.417 133.043 111.682 132.311 110.948C131.786 110.424 131.26 109.899 130.735 109.375C129.455 108.098 128.176 106.819 126.899 105.539C125.86 104.5 124.822 103.461 123.783 102.422C123.635 102.275 123.487 102.127 123.335 101.975C123.034 101.675 122.734 101.375 122.434 101.075C119.619 98.2607 116.805 95.445 113.992 92.6288C111.576 90.2103 109.158 87.7932 106.739 85.3773C103.933 82.5734 101.127 79.7685 98.322 76.9623C98.0232 76.6633 97.7245 76.3644 97.4257 76.0654C97.2787 75.9183 97.1317 75.7712 96.9802 75.6197C95.9422 74.5811 94.9034 73.5432 93.8645 72.5056C92.4677 71.1106 91.0724 69.714 89.6782 68.3165C89.1647 67.8023 88.6508 67.2886 88.1364 66.7754C87.4373 66.0779 86.74 65.3787 86.0431 64.679C85.8365 64.4736 85.6299 64.2682 85.417 64.0566C85.232 63.8702 85.047 63.6837 84.8564 63.4916C84.6951 63.3302 84.5338 63.1688 84.3676 63.0025C84.0271 62.5913 84.0271 62.5913 84.0271 62.0272C84.3911 61.6893 84.3911 61.6893 84.9073 61.3089C85.1948 61.094 85.1948 61.094 85.4881 60.8747C85.8032 60.6424 85.8032 60.6424 86.1247 60.4055C87.875 59.0931 89.5903 57.7506 91.2719 56.3512C92.8594 55.032 94.4611 53.7368 96.0895 52.4685C97.3302 51.5001 98.5507 50.5089 99.7683 49.5118C101.308 48.252 102.871 47.0283 104.457 45.8277C106.319 44.4178 108.131 42.9569 109.928 41.4645C111.314 40.314 112.719 39.1915 114.14 38.0846C115.381 37.1162 116.601 36.125 117.819 35.1279C119.551 33.7104 121.317 32.343 123.103 30.994C124.815 29.6935 126.471 28.3309 128.107 26.9362C130.319 25.0767 132.48 24.0941 135.402 24.9833Z" fill="black"/>
</svg>
